<svg width="18" height="11" viewBox="0 0 18 11" fill="none" xmlns="http://www.w3.org/2000/svg">
<path d="M1.17674 1.53034L1.17676 1.53032L1.5303 1.17674C1.53031 1.17673 1.53031 1.17673 1.53032 1.17672C1.62794 1.07911 1.78621 1.07911 1.88385 1.17674C1.88385 1.17674 1.88385 1.17674 1.88385 1.17674L8.64641 7.93934L8.99996 8.2929L9.35352 7.93934L16.1161 1.17674C16.2138 1.07911 16.372 1.07911 16.4696 1.17674L16.8232 1.53034C16.9208 1.62798 16.9208 1.7862 16.8232 1.88384L9.17671 9.53034C9.07907 9.62797 8.92085 9.62797 8.82322 9.53034L1.17674 1.88384C1.17674 1.88384 1.17674 1.88384 1.17674 1.88384C1.07911 1.7862 1.07911 1.62797 1.17674 1.53034Z" fill="#008ECF" stroke="#008ECF"/>
</svg>
