<svg width="46" height="48" viewBox="0 0 46 48" fill="none" xmlns="http://www.w3.org/2000/svg">
<path d="M22.388 0.359953C22.6506 0.127824 22.9867 0 23.3345 0C23.6822 0 24.0183 0.127824 24.2809 0.359953L28.9662 4.50149C29.1121 4.63061 29.282 4.72857 29.4659 4.78954C29.6498 4.8505 29.8438 4.87325 30.0365 4.85641L36.2226 4.30812C36.5689 4.27785 36.9143 4.37583 37.1954 4.58403C37.4764 4.79224 37.6742 5.09669 37.7523 5.44141L39.1521 11.595C39.1953 11.7873 39.2761 11.9687 39.3898 12.1285C39.5034 12.2884 39.6475 12.4232 39.8135 12.5251L45.1337 15.7806C45.4314 15.963 45.6545 16.2486 45.7618 16.585C45.8692 16.9213 45.8537 17.2858 45.7182 17.6115L43.2938 23.4272C43.2184 23.6084 43.1795 23.8032 43.1795 24C43.1795 24.1968 43.2184 24.3916 43.2938 24.5728L45.7182 30.3885C45.8544 30.7145 45.8702 31.0795 45.7628 31.4164C45.6554 31.7533 45.432 32.0394 45.1337 32.2219L39.8135 35.4773C39.6478 35.579 39.5038 35.7134 39.3902 35.8728C39.2766 36.0322 39.1956 36.2132 39.1521 36.405L37.7523 42.5586C37.6742 42.9033 37.4764 43.2078 37.1954 43.416C36.9143 43.6242 36.5689 43.7222 36.2226 43.6919L30.0365 43.1436C29.844 43.1264 29.65 43.1488 29.4662 43.2093C29.2823 43.2699 29.1123 43.3674 28.9662 43.4961L24.2785 47.6401C24.0159 47.8722 23.6798 48 23.3321 48C22.9843 48 22.6482 47.8722 22.3856 47.6401L17.7003 43.4961C17.5542 43.3674 17.3842 43.2699 17.2003 43.2093C17.0165 43.1488 16.8225 43.1264 16.63 43.1436L10.4439 43.6919C10.0976 43.7222 9.75216 43.6242 9.47112 43.416C9.19009 43.2078 8.99235 42.9033 8.91425 42.5586L7.51444 36.405C7.47122 36.2127 7.39038 36.0313 7.27674 35.8715C7.1631 35.7117 7.019 35.5768 6.85302 35.4749L1.53278 32.2194C1.23507 32.037 1.01204 31.7514 0.904674 31.415C0.797304 31.0787 0.812803 30.7142 0.948322 30.3885L3.37273 24.5728C3.44815 24.3916 3.48701 24.1968 3.48701 24C3.48701 23.8032 3.44815 23.6084 3.37273 23.4272L0.948322 17.6115C0.812137 17.2855 0.796285 16.9205 0.903686 16.5836C1.01109 16.2467 1.23451 15.9606 1.53278 15.7781L6.85302 12.5227C7.01874 12.421 7.1627 12.2866 7.27633 12.1272C7.38995 11.9678 7.47093 11.7868 7.51444 11.595L8.91425 5.44141C8.99235 5.09669 9.19009 4.79224 9.47112 4.58403C9.75216 4.37583 10.0976 4.27785 10.4439 4.30812L16.63 4.85641C16.8227 4.87325 17.0167 4.8505 17.2006 4.78954C17.3845 4.72857 17.5544 4.63061 17.7003 4.50149L22.388 0.359953Z" fill="#FFD700"/>
<path d="M15.8333 26.2L20.6904 31L32.8333 19" stroke="#8AC53E" stroke-width="3" stroke-linecap="round" stroke-linejoin="round"/>
</svg>
