<svg width="97" height="99" viewBox="0 0 97 99" fill="none" xmlns="http://www.w3.org/2000/svg">
<path d="M3.0283 55.8506L26.5411 67.6181C27.5915 68.1823 28.3994 69.0689 28.8034 70.2779L36.641 95.3443C37.6106 98.4877 41.6506 99.4549 43.9938 97.1175L62.497 78.499C63.305 77.6124 64.517 77.2094 65.6482 77.2094L91.9081 77.5318C95.2209 77.5318 97.4025 74.066 95.8673 71.0839L83.8282 47.7906C83.2626 46.7428 83.1817 45.5338 83.5857 44.3248L91.9889 19.5002C93.0393 16.3568 90.3729 13.2134 87.0601 13.7776L61.1234 17.9688C59.9114 18.13 58.6994 17.8882 57.8106 17.1628L36.7218 1.52649C34.0554 -0.488499 30.2578 1.12349 29.6922 4.42807L25.733 30.3811C25.5714 31.5901 24.9251 32.6379 23.9555 33.2827L2.54349 48.4354C-0.203702 50.3698 0.119495 54.4804 3.10909 55.9311L3.0283 55.8506Z" fill="#E4899B"/>
</svg>
