<svg width="53" height="57" viewBox="0 0 53 57" fill="none" xmlns="http://www.w3.org/2000/svg">
    <path d="M0.198139 14.312L6.09653 27.8527C6.33893 28.4975 6.33893 29.1423 6.09653 29.7871L0.440539 43.4084C-0.28666 45.101 1.08694 47.0354 2.94533 46.7936L17.6509 45.4234C18.2973 45.4234 19.0245 45.5846 19.5093 45.9876L30.7405 55.579C32.1949 56.788 34.3765 56.0626 34.7805 54.2088L38.0125 39.7815C38.1741 39.1367 38.5781 38.5725 39.1437 38.1695L51.7484 30.4319C53.3644 29.4647 53.3644 27.1273 51.7484 26.1601L38.9821 18.6644C38.4165 18.342 38.0125 17.7778 37.8509 17.133L34.3765 2.78631C33.9725 0.932526 31.7101 0.287731 30.3365 1.49672L19.2669 11.2493C18.7821 11.7329 18.1357 11.894 17.4085 11.894L2.70293 10.7656C0.844538 10.6044 -0.529059 12.5388 0.198139 14.2314V14.312Z" fill="#8CDBDF"/>
</svg>
