<svg width="49" height="48" viewBox="0 0 49 48" fill="none" xmlns="http://www.w3.org/2000/svg">
<g clip-path="url(#clip0_9474_998)">
<path d="M24.667 0C37.921 0 48.667 10.746 48.667 24C48.667 37.254 37.921 48 24.667 48C11.413 48 0.666992 37.254 0.666992 24C0.666992 10.746 11.413 0 24.667 0ZM24.667 39.652C26.7435 39.6852 28.8059 39.3049 30.7339 38.5332C32.662 37.7615 34.4173 36.6139 35.8974 35.1572C37.3776 33.7005 38.5532 31.9638 39.3556 30.0483C40.158 28.1328 40.5712 26.0768 40.5712 24C40.5712 21.9232 40.158 19.8672 39.3556 17.9517C38.5532 16.0362 37.3776 14.2995 35.8974 12.8428C34.4173 11.3861 32.662 10.2385 30.7339 9.46681C28.8059 8.69512 26.7435 8.3148 24.667 8.348C20.5592 8.41367 16.6418 10.0916 13.76 13.0198C10.8783 15.948 9.26322 19.8916 9.26322 24C9.26322 28.1084 10.8783 32.052 13.76 34.9802C16.6418 37.9084 20.5592 39.5863 24.667 39.652ZM24.667 31.682C22.6301 31.682 20.6767 30.8729 19.2364 29.4326C17.7961 27.9923 16.987 26.0389 16.987 24.002C16.987 21.9651 17.7961 20.0117 19.2364 18.5714C20.6767 17.1311 22.6301 16.322 24.667 16.322C26.7039 16.322 28.6573 17.1311 30.0976 18.5714C31.5379 20.0117 32.347 21.9651 32.347 24.002C32.347 26.0389 31.5379 27.9923 30.0976 29.4326C28.6573 30.8729 26.7039 31.682 24.667 31.682Z" fill="#FFD700"/>
</g>
<defs>
<clipPath id="clip0_9474_998">
<rect width="48" height="48" fill="white" transform="translate(0.666992)"/>
</clipPath>
</defs>
</svg>
