<svg width="159" height="122" viewBox="0 0 159 122" fill="none" xmlns="http://www.w3.org/2000/svg">
    <g id="OBJECTS">
        <path id="Vector" d="M144.369 45.7439C137.406 63.1337 122.151 76.3841 104.15 81.416C96.1354 83.6651 86.4968 84.0687 77.8775 81.9481C78.484 81.4502 79.1012 80.977 79.6616 80.4404C87.4867 73.2896 93.4291 63.2916 91.9066 52.3428C90.5044 42.28 83.114 33.3811 72.4362 33.1512C62.4804 32.9597 53.0525 40.0736 50.2176 49.5138C46.9846 60.2701 51.6277 72.1799 59.8183 79.4707C61.4514 80.931 63.2428 82.1467 65.101 83.2454C61.2956 85.3084 57.4069 86.9091 53.8661 87.8897C43.4239 90.8412 31.4319 90.156 22.5186 83.5015C14.5777 77.5975 9.22917 67.9877 10.866 57.9538C11.5014 54.0718 5.48687 53.0775 4.86545 56.9242C3.15364 67.665 7.67395 78.0742 15.366 85.4349C23.7791 93.5086 35.5543 96.6041 47.0116 95.3813C55.7142 94.446 64.3122 91.2399 71.7788 86.4436C78.3899 88.8792 85.6314 89.7218 92.5994 89.3931C117.5 88.1375 140.686 71.2962 149.926 48.256C151.38 44.6343 145.837 42.0868 144.394 45.7331L144.369 45.7439ZM55.9565 62.1203C53.7649 53.6903 57.0159 44.8024 65.0841 40.9176C72.6932 37.2614 81.0463 40.0546 84.4171 47.8846C89.8842 60.6092 81.7788 71.9863 71.0473 79.5491C63.8808 76.2406 58.1804 70.6243 55.9458 62.0956L55.9565 62.1203Z" fill="#8AC53E"/>
    </g>
</svg>
