<svg width="102" height="107" viewBox="0 0 102 107" fill="none" xmlns="http://www.w3.org/2000/svg">
<path d="M0.671796 26.3605L11.9555 52.4132C12.4192 53.6539 12.4192 54.8945 11.9555 56.1351L0.980937 82.3429C-0.410199 85.5994 2.2175 89.3213 5.77263 88.856L33.9045 86.2197C35.1411 86.2197 36.5322 86.5299 37.4596 87.3053L58.9449 105.759C61.7272 108.085 65.9006 106.69 66.6735 103.123L72.8563 75.3644C73.1654 74.1238 73.9383 73.0383 75.0203 72.2629L99.1333 57.3757C102.225 55.5148 102.225 51.0176 99.1333 49.1567L74.7111 34.7346C73.6292 34.1143 72.8563 33.0288 72.5471 31.7882L65.9006 4.1847C65.1278 0.617964 60.7998 -0.622642 58.1721 1.70349L36.9959 20.4677C36.0685 21.3981 34.8319 21.7083 33.4408 21.7083L5.30892 19.5372C1.75379 19.227 -0.873911 22.9489 0.517225 26.2055L0.671796 26.3605Z" fill="#8AC53E"/>
</svg>
