<svg width="14" height="15" viewBox="0 0 14 15" fill="none" xmlns="http://www.w3.org/2000/svg">
<path d="M7.93355 0.897345C6.83431 0.746887 5.71491 0.870939 4.67529 1.25843C3.63566 1.64592 2.70815 2.28479 1.97555 3.11801C1.34855 3.84013 0.883339 4.68807 0.611165 5.60486C0.33899 6.52165 0.266154 7.48607 0.39755 8.43335C0.750883 11.0293 2.70288 13.238 5.25422 13.9307C5.82297 14.0863 6.40988 14.1657 6.99955 14.1667L7.09422 14.166C7.43125 14.1617 7.76172 14.0723 8.05495 13.9061C8.34819 13.7399 8.59468 13.5023 8.77155 13.2153C8.94901 12.93 9.05142 12.6044 9.06926 12.2688C9.08709 11.9332 9.01977 11.5986 8.87355 11.296L8.74088 11.0187C8.63884 10.8193 8.59093 10.5967 8.60192 10.373C8.61292 10.1493 8.68245 9.9324 8.80355 9.74401C8.97683 9.46254 9.2483 9.25529 9.56549 9.16232C9.88268 9.06936 10.2231 9.09727 10.5209 9.24068L10.7955 9.37201C11.0702 9.50401 11.3622 9.57135 11.6629 9.57135C12.1891 9.56865 12.6933 9.3602 13.0678 8.99056C13.4423 8.62093 13.6573 8.11945 13.6669 7.59335C13.6751 6.97201 13.5959 6.3526 13.4315 5.75335C12.7382 3.20268 10.5295 1.25068 7.93355 0.897345ZM11.3722 8.17001L11.0975 8.03868C9.87888 7.45335 8.38422 7.90668 7.67422 9.03468C7.18222 9.81868 7.13222 10.752 7.53822 11.596L7.67088 11.8733C7.72061 11.9741 7.7436 12.0859 7.73764 12.1981C7.73169 12.3103 7.69699 12.4191 7.63688 12.514C7.5783 12.611 7.49579 12.6913 7.39726 12.7472C7.29874 12.8031 7.1875 12.8328 7.07422 12.8333H6.99955C6.52773 12.832 6.05814 12.7686 5.60288 12.6447C3.56088 12.0907 2.00088 10.3253 1.71888 8.25401C1.50488 6.68401 1.95355 5.17201 2.98088 3.99468C3.56537 3.32416 4.30825 2.81045 5.14192 2.50026C5.97559 2.19008 6.87359 2.09328 7.75422 2.21868C9.82555 2.50068 11.5909 4.06135 12.1449 6.10268C12.2769 6.58935 12.3402 7.08535 12.3329 7.57401C12.3249 8.11201 11.7695 8.36268 11.3722 8.17001Z" fill="#EB5D0B"/>
<path d="M4.0002 10.1666C4.55249 10.1666 5.0002 9.71893 5.0002 9.16665C5.0002 8.61436 4.55249 8.16665 4.0002 8.16665C3.44792 8.16665 3.0002 8.61436 3.0002 9.16665C3.0002 9.71893 3.44792 10.1666 4.0002 10.1666Z" fill="#EB5D0B"/>
<path d="M4.0002 7.49998C4.55249 7.49998 5.0002 7.05226 5.0002 6.49998C5.0002 5.9477 4.55249 5.49998 4.0002 5.49998C3.44792 5.49998 3.0002 5.9477 3.0002 6.49998C3.0002 7.05226 3.44792 7.49998 4.0002 7.49998Z" fill="#EB5D0B"/>
<path d="M6.0002 5.49998C6.55249 5.49998 7.0002 5.05226 7.0002 4.49998C7.0002 3.9477 6.55249 3.49998 6.0002 3.49998C5.44792 3.49998 5.0002 3.9477 5.0002 4.49998C5.0002 5.05226 5.44792 5.49998 6.0002 5.49998Z" fill="#EB5D0B"/>
<path d="M8.66687 5.49998C9.21915 5.49998 9.66687 5.05226 9.66687 4.49998C9.66687 3.9477 9.21915 3.49998 8.66687 3.49998C8.11458 3.49998 7.66687 3.9477 7.66687 4.49998C7.66687 5.05226 8.11458 5.49998 8.66687 5.49998Z" fill="#EB5D0B"/>
</svg>
