<svg width="16" height="17" viewBox="0 0 16 17" fill="none" xmlns="http://www.w3.org/2000/svg">
<path d="M3.97456 12.2826C4.66656 13.3873 4.66656 14.2113 4.66656 15.1666H5.99989C5.99989 14.1526 5.99989 13.004 5.10456 11.574L3.97456 12.2826ZM11.0026 2.75797C9.31789 1.7733 5.03322 1.1173 2.85389 3.36997C0.608558 5.69064 1.35456 9.41797 2.85456 10.9646C2.93322 11.046 3.01722 11.1173 3.10056 11.1866C3.14856 11.2273 3.19789 11.264 3.23722 11.3093L4.23322 10.4226C4.1466 10.329 4.05324 10.2419 3.95389 10.162C3.90589 10.122 3.85656 10.0826 3.81122 10.0366C2.70456 8.89597 2.14056 6.0253 3.81189 4.29797C5.49522 2.5573 9.19056 3.2453 10.3299 3.91064C12.1239 4.95664 13.0612 6.78264 13.0692 6.7993L14.2619 6.20264C14.2186 6.11264 13.1499 4.00997 11.0026 2.75797Z" fill="#EB5D0B"/>
<path d="M6.22652 9.04802C5.53986 8.20802 5.03519 7.50335 5.29852 6.71068C5.47386 6.18735 5.84052 5.82735 6.38986 5.64135C7.20586 5.36802 8.33652 5.53468 9.08319 6.04202L9.83186 4.93935C8.73319 4.19268 7.17719 3.96802 5.96252 4.37868C5.02386 4.69602 4.33919 5.37535 4.03452 6.28935C3.51719 7.84135 4.56719 9.12535 5.19452 9.89268C5.29386 10.0147 5.38786 10.1287 5.46719 10.234C7.33319 12.7154 7.33319 13.906 7.33319 15.1667H8.66652C8.66652 13.8094 8.66652 12.27 6.53252 9.43268C6.43293 9.30257 6.33091 9.17432 6.22652 9.04802ZM10.0872 6.81868C11.3105 7.99468 12.1099 9.78335 12.6799 12.6194L13.9872 12.356C13.3612 9.23735 12.4432 7.23269 11.0119 5.85735L10.0872 6.81868Z" fill="#EB5D0B"/>
<path d="M7.70386 6.61261L6.96053 7.71928C6.97853 7.73194 8.76786 8.97261 9.49453 11.5353L10.7772 11.1719C9.9112 8.11728 7.7932 6.67261 7.70386 6.61261ZM9.79186 12.8059C9.93186 13.5846 9.99986 14.3566 9.99986 15.1666H11.3332C11.3332 14.2766 11.2585 13.4279 11.1045 12.5699L9.79186 12.8059Z" fill="#EB5D0B"/>
</svg>
