<svg width="16" height="17" viewBox="0 0 16 17" fill="none" xmlns="http://www.w3.org/2000/svg">
<path d="M12.6667 1.83331H6.00002C5.26469 1.83331 4.66669 2.43131 4.66669 3.16665V6.89065L1.52869 10.0286C1.43548 10.1219 1.37201 10.2407 1.3463 10.37C1.32059 10.4993 1.33379 10.6333 1.38424 10.7551C1.43468 10.8769 1.52011 10.981 1.62972 11.0542C1.73932 11.1275 1.86819 11.1666 2.00002 11.1666V14.5C2.00002 14.6768 2.07026 14.8464 2.19528 14.9714C2.32031 15.0964 2.48988 15.1666 2.66669 15.1666H13.3334C13.5102 15.1666 13.6797 15.0964 13.8048 14.9714C13.9298 14.8464 14 14.6768 14 14.5V3.16665C14 2.43131 13.402 1.83331 12.6667 1.83331ZM7.33335 13.8333H3.33335V10.1093L5.33335 8.10931L7.33335 10.1093V13.8333ZM12.6667 13.8333H8.66669V11.1666C8.79866 11.1669 8.92775 11.128 9.03757 11.0548C9.14738 10.9816 9.23297 10.8774 9.28347 10.7555C9.33397 10.6336 9.34711 10.4994 9.32121 10.37C9.29532 10.2406 9.23155 10.1218 9.13802 10.0286L6.00002 6.89065V3.16665H12.6667V13.8333Z" fill="#EB5D0B"/>
<path d="M7.33337 4.49998H8.66671V5.83331H7.33337V4.49998ZM10 4.49998H11.3334V5.83331H10V4.49998ZM10 7.18731H11.3334V8.49998H10V7.18731ZM10 9.83331H11.3334V11.1666H10V9.83331ZM4.66671 10.5H6.00004V11.8333H4.66671V10.5Z" fill="#EB5D0B"/>
</svg>
