<svg width="106" height="181" viewBox="0 0 106 181" fill="none" xmlns="http://www.w3.org/2000/svg">
<g clip-path="url(#clip0_9474_968)">
<path d="M3.00162 164.889L2.05664 180.62L7.46709 166.594L3.00162 164.889Z" fill="#1F1C1D"/>
<path d="M38.5402 41.0787L8.98654 168.688L0 165.908L25.5329 38.2993L38.5402 41.0787Z" fill="#E4899B"/>
<path d="M38.54 41.0787L95.6092 158.96L103.762 154.272L50.6024 35.5015L38.54 41.0787Z" fill="#E4899B"/>
<path d="M34.8713 -6.29574e-06C32.2772 0.704094 31.8325 20.0668 31.8325 20.0668L42.2458 19.3627C42.2458 19.3627 37.4653 -0.685577 34.8713 -6.29574e-06Z" fill="#1F1C1D"/>
<path d="M24.9955 21.5306L21.0488 45.4515C38.1881 49.9726 56.995 44.4509 56.995 44.4509L48.7125 20.0483C43.8024 16.0275 26.941 18.6772 24.977 21.5492L24.9955 21.5306Z" fill="#263A88"/>
<path d="M82.991 78.7665C59.904 91.7739 31.6658 94.2568 6.65176 85.5111C4.40976 84.7329 3.33508 88.2348 5.55855 89.0131C31.462 98.0737 60.8304 95.4426 84.7327 81.9906C86.7895 80.8233 85.0477 77.5992 82.9725 78.7665H82.991Z" fill="#69BAC2"/>
<path d="M98.2031 157.107C98.2031 157.107 100.964 167.483 101.872 167.428C102.78 167.372 104.077 156.533 104.077 156.533L98.2031 157.107Z" fill="#1F1C1D"/>
<path d="M90.2358 131.37L95.7204 158.96L105.708 157.478L103.91 126.775L90.2358 131.37Z" fill="#BC1E33"/>
</g>
<defs>
<clipPath id="clip0_9474_968">
<rect width="105.708" height="180.62" fill="white"/>
</clipPath>
</defs>
</svg>
