<svg width="180" height="181" viewBox="0 0 180 181" fill="none" xmlns="http://www.w3.org/2000/svg">
<g id="OBJECTS">
<path id="Vector" d="M107.059 159.238C117.274 155.642 126.482 149.928 134.5 141.997C147.788 128.845 155.663 113.031 157.379 94.2724C157.59 92.002 157.544 89.7324 157.62 87.4598C157.634 87.1383 157.731 86.8109 157.783 86.4926C157.529 83.6207 157.264 80.7436 157.015 77.8594C156.581 75.9916 156.164 74.1166 155.719 72.2436C153.151 61.4849 148.162 52.2893 140.93 44.65C129.874 32.9537 116.203 26.7514 100.227 25.5163C93.3717 24.9893 86.4972 25.6151 79.6719 27.2164C67.6368 30.0477 56.5113 35.3831 46.4661 43.5844C39.6141 49.164 33.7045 55.6846 28.9539 63.3205C22.4093 73.8215 18.51 85.1707 17.7857 97.4484C17.7734 97.6213 17.6551 97.7901 17.5869 97.9671C18.0179 102.767 18.4434 107.549 18.8744 112.349C20.3125 114.293 21.5199 116.503 23.2223 118.137C26.3443 121.141 30.3453 122.063 34.6782 121.769C38.0898 121.541 41.3229 120.471 44.476 118.844C53.0055 114.455 63.3824 119.197 65.3621 128.568C65.892 131.105 65.6331 133.919 65.5312 136.627C65.193 145.434 67.7281 152.724 74.1278 157.984C78.235 161.368 83.0917 162.863 88.4213 162.925C94.7721 162.995 100.961 161.369 107.065 159.226L107.059 159.238ZM51.2034 56.1927C50.2537 48.8605 55.5302 42.6882 61.0215 41.9307C67.3083 40.736 72.6103 44.8942 73.1501 51.7693C73.6122 57.7597 69.7371 63.8489 62.8523 65.1697C57.4931 66.1967 51.9309 61.7249 51.2146 56.1979L51.2034 56.1927ZM90.0952 53.3025C89.3254 46.6042 93.8598 40.4023 100.113 39.2813C106.075 38.205 111.493 42.5803 112.058 48.9313C112.634 55.4358 108.162 61.5621 101.971 62.5777C95.9366 63.5762 90.7968 59.3588 90.1009 53.2902L90.0952 53.3025ZM24.3104 91.5838C23.6051 85.2429 28.195 79.0962 34.1354 77.9503C40.6235 76.6996 45.9927 81.6482 46.3099 87.6016C46.8082 94.0108 42.4253 100.089 36.5082 101.097C30.0154 102.211 25.0155 97.9543 24.3104 91.5838ZM122.694 77.4531C122.013 70.885 126.709 64.7129 132.81 63.775C139.063 62.5946 144.466 67.4398 144.763 73.9051C145.051 80.098 140.731 85.9819 134.769 86.9692C127.981 88.0812 123.312 83.4264 122.7 77.4705L122.694 77.4531ZM85.2692 137.81C84.5283 127.626 91.4599 118.51 100.808 116.94C110.608 115.297 119.044 122.375 119.289 133.194C119.494 142.58 113.09 151.255 103.502 152.877C94.2211 154.448 85.9244 147.449 85.2581 137.805L85.2692 137.81Z" fill="#DDB788"/>
<path id="Vector_2" d="M100.122 39.2856C106.084 38.209 111.5 42.5837 112.065 48.9341C112.64 55.4381 108.168 61.5642 101.979 62.5802C95.9455 63.5789 90.807 59.3622 90.1116 53.2942C89.3424 46.5965 93.8764 40.3947 100.128 39.2734L100.122 39.2856Z" fill="#008ECF"/>
<path id="Vector_3" d="M132.796 63.7691C139.048 62.5884 144.45 67.4329 144.746 73.8976C145.034 80.0901 140.714 85.9738 134.753 86.9614C127.966 88.0738 123.299 83.4196 122.687 77.4642C122.006 70.8967 126.701 64.7247 132.801 63.7865L132.796 63.7691Z" fill="#8AC53E"/>
<path id="Vector_4" d="M46.3054 87.5992C46.8032 94.0079 42.4207 100.086 36.5046 101.094C30.013 102.209 25.0143 97.9526 24.3098 91.5826C23.6051 85.2422 28.1945 79.0957 34.1338 77.9495C40.6207 76.6984 45.9887 81.6463 46.3054 87.5992Z" fill="#EB5D0B"/>
<path id="Vector_5" d="M61.0195 41.9299C67.3051 40.7349 72.6059 44.8925 73.1451 51.767C73.6067 57.7569 69.7319 63.8459 62.8483 65.1671C57.4901 66.1943 51.9292 61.7233 51.2134 56.1967C50.2643 48.8651 55.5403 42.6929 61.0306 41.9351L61.0195 41.9299Z" fill="#F6DCDE"/>
</g>
</svg>
