<svg width="34" height="35" viewBox="0 0 34 35" fill="none" xmlns="http://www.w3.org/2000/svg">
    <path id="Vector" d="M0.82346 19.2138L9.00614 23.3091C9.37169 23.5054 9.65288 23.8139 9.79348 24.2347L12.521 32.9581C12.8585 34.052 14.2644 34.3886 15.0799 33.5752L21.5192 27.0957C21.8004 26.7872 22.2222 26.6469 22.6158 26.6469L31.7546 26.7591C32.9074 26.7591 33.6667 25.553 33.1324 24.5152L28.9426 16.4089C28.7458 16.0442 28.7177 15.6235 28.8583 15.2028L31.7827 6.56353C32.1482 5.4696 31.2203 4.37567 30.0674 4.57202L21.0411 6.03059C20.6194 6.08669 20.1976 6.00254 19.8883 5.7501L12.5492 0.308502C11.6212 -0.392734 10.2996 0.168255 10.1028 1.31828L8.72494 10.3502C8.6687 10.7709 8.44376 11.1356 8.10633 11.36L0.654741 16.6333C-0.301311 17.3065 -0.188835 18.737 0.851574 19.2419L0.82346 19.2138Z" fill="#E4899B"/>
</svg>
