<svg width="231" height="191" viewBox="0 0 231 191" fill="none" xmlns="http://www.w3.org/2000/svg">
<g clip-path="url(#clip0_9474_1396)">
<rect width="98.8974" height="93.3668" transform="matrix(0.945179 -0.326552 0.325979 0.945377 104.785 32.7399)" fill="none"/>
<path d="M162.707 99.6871L179.467 76.3442L166.467 59.1596L157.008 66.6608L162.707 99.6871Z" fill="#24357F"/>
<path d="M198.152 0.773842C201.721 3.44547 210.441 94.1059 209.484 95.3488C208.494 96.5668 159.391 68.8295 159.391 68.8295C159.369 68.8372 112.103 53.6751 111.082 50.9993C110.06 48.3235 195.462 -1.216 198.152 0.773842Z" fill="#8CDCDF"/>
<path d="M196.2 6.7401L145.891 64.4078C145.891 64.4078 161.321 99.3267 162.674 99.6622C164.027 99.9976 162.968 70.8786 162.968 70.8786L196.2 6.7401Z" fill="#69BAC2"/>
</g>
<g clip-path="url(#clip1_9474_1396)">
<rect width="142.061" height="69.9993" transform="translate(1.87402 126.007) rotate(-23.4734)" fill="none"/>
<path d="M146.155 114.189C139.191 131.578 123.936 144.829 105.935 149.861C97.921 152.11 88.2823 152.513 79.6631 150.393C80.2696 149.895 80.8868 149.422 81.4471 148.885C89.2723 141.734 95.2146 131.736 93.6921 120.788C92.2899 110.725 84.8995 101.826 74.2218 101.596C64.2659 101.404 54.838 108.518 52.0031 117.958C48.7701 128.715 53.4132 140.625 61.6038 147.915C63.237 149.376 65.0284 150.591 66.8865 151.69C63.0811 153.753 59.1925 155.354 55.6516 156.334C45.2095 159.286 33.2174 158.601 24.3041 151.946C16.3632 146.042 11.0147 136.432 12.6515 126.399C13.2869 122.516 7.27239 121.522 6.65097 125.369C4.93916 136.11 9.45947 146.519 17.1515 153.88C25.5646 161.953 37.3399 165.049 48.7971 163.826C57.4997 162.891 66.0977 159.685 73.5643 154.888C80.1754 157.324 87.4169 158.166 94.3849 157.838C119.285 156.582 142.471 139.741 151.712 116.701C153.166 113.079 147.622 110.531 146.179 114.178L146.155 114.189ZM57.7421 130.565C55.5504 122.135 58.8014 113.247 66.8696 109.362C74.4787 105.706 82.8318 108.499 86.2027 116.329C91.6697 129.054 83.5643 140.431 72.8328 147.994C65.6663 144.685 59.9659 139.069 57.7314 130.54L57.7421 130.565Z" fill="#FFD700"/>
</g>
<defs>
<clipPath id="clip0_9474_1396">
<rect width="98.8974" height="93.3668" fill="white" transform="matrix(0.945179 -0.326552 0.325979 0.945377 104.785 32.7399)"/>
</clipPath>
<clipPath id="clip1_9474_1396">
<rect width="142.061" height="69.9993" fill="white" transform="translate(1.87402 126.007) rotate(-23.4734)"/>
</clipPath>
</defs>
</svg>
