<svg width="263" height="265" viewBox="0 0 263 265" fill="none" xmlns="http://www.w3.org/2000/svg">
<g clip-path="url(#clip0_9474_1089)">
<path d="M28.6718 184.361L39.9555 210.413C40.4192 211.654 40.4192 212.894 39.9555 214.135L28.9809 240.343C27.5898 243.599 30.2175 247.321 33.7726 246.856L61.9045 244.22C63.1411 244.22 64.5322 244.53 65.4596 245.305L86.9449 263.759C89.7272 266.085 93.9006 264.69 94.6735 261.123L100.856 233.364C101.165 232.124 101.938 231.038 103.02 230.263L127.133 215.376C130.225 213.515 130.225 209.018 127.133 207.157L102.711 192.735C101.629 192.114 100.856 191.029 100.547 189.788L93.9006 162.185C93.1278 158.618 88.7998 157.377 86.1721 159.703L64.9959 178.468C64.0685 179.398 62.8319 179.708 61.4408 179.708L33.3089 177.537C29.7538 177.227 27.1261 180.949 28.5172 184.205L28.6718 184.361Z" fill="#8AC53E"/>
</g>
<path d="M169.028 55.8506L192.541 67.6181C193.591 68.1823 194.399 69.0689 194.803 70.2779L202.641 95.3443C203.611 98.4877 207.651 99.4549 209.994 97.1175L228.497 78.499C229.305 77.6124 230.517 77.2094 231.648 77.2094L257.908 77.5318C261.221 77.5318 263.403 74.066 261.867 71.0839L249.828 47.7906C249.263 46.7428 249.182 45.5338 249.586 44.3248L257.989 19.5002C259.039 16.3568 256.373 13.2134 253.06 13.7776L227.123 17.9688C225.911 18.13 224.699 17.8882 223.811 17.1628L202.722 1.52649C200.055 -0.488499 196.258 1.12349 195.692 4.42807L191.733 30.3811C191.571 31.5901 190.925 32.6379 189.955 33.2827L168.543 48.4354C165.796 50.3698 166.119 54.4804 169.109 55.9311L169.028 55.8506Z" fill="#E4899B"/>
<path d="M0.198139 31.312L6.09653 44.8527C6.33893 45.4975 6.33893 46.1423 6.09653 46.7871L0.440539 60.4084C-0.28666 62.101 1.08694 64.0354 2.94533 63.7936L17.6509 62.4234C18.2973 62.4234 19.0245 62.5846 19.5093 62.9876L30.7405 72.579C32.1949 73.788 34.3765 73.0626 34.7805 71.2088L38.0125 56.7815C38.1741 56.1367 38.5781 55.5725 39.1437 55.1695L51.7484 47.4319C53.3644 46.4647 53.3644 44.1273 51.7484 43.1601L38.9821 35.6644C38.4165 35.342 38.0125 34.7778 37.8509 34.133L34.3765 19.7863C33.9725 17.9325 31.7101 17.2877 30.3365 18.4967L19.2669 28.2493C18.7821 28.7329 18.1357 28.894 17.4085 28.894L2.70293 27.7656C0.844538 27.6044 -0.529059 29.5388 0.198139 31.2314V31.312Z" fill="#8CDBDF"/>
<defs>
<clipPath id="clip0_9474_1089">
<rect width="120.686" height="126.433" fill="white" transform="translate(8.62012 138.567)"/>
</clipPath>
</defs>
</svg>
