<svg width="130" height="97" viewBox="0 0 130 97" fill="none" xmlns="http://www.w3.org/2000/svg">
<path id="Vector" d="M-11.2459 42.7914C-12.2081 41.0594 -13.01 39.2311 -13.6515 37.3066C-15.9609 30.0255 -15.2873 22.2634 -11.7591 15.4634C-8.2629 8.6956 -2.29693 3.6598 4.98412 1.3504C12.2652 -0.95901 20.0273 -0.285433 26.8273 3.21075L116.734 49.3668C122.379 52.2857 126.549 57.2573 128.473 63.3195C130.398 69.3817 129.852 75.8288 126.902 81.474C123.983 87.1192 119.011 91.289 112.949 93.2135C106.887 95.138 100.44 94.5927 94.7944 91.6418L16.3387 51.0347C7.03692 46.1914 3.38036 34.7085 8.19163 25.4067C13.035 16.1049 24.5179 12.4484 33.8196 17.2596L106.117 55.9101C107.111 56.4233 107.464 57.6422 106.951 58.6365C106.438 59.6309 105.219 59.9837 104.224 59.4705L31.9913 20.82C24.6782 17.0351 15.601 19.8898 11.8161 27.235C7.99917 34.5802 10.8859 43.6254 18.2311 47.4423L96.6868 88.1135C101.37 90.5512 106.758 91.0003 111.794 89.4286C116.83 87.8249 120.968 84.3608 123.373 79.6778C125.811 74.9948 126.26 69.6062 124.656 64.5704C123.053 59.5346 119.588 55.429 114.905 52.9913L24.9669 6.80316C12.9387 0.548519 -1.94411 5.26356 -8.19875 17.3238C-11.2138 23.1615 -11.7912 29.8331 -9.80251 36.0877C-7.81385 42.3424 -3.51579 47.4744 2.32188 50.4894L85.3322 93.1814C86.3266 93.6946 86.7115 94.9135 86.1983 95.9078C85.6851 96.9021 84.4662 97.287 83.4719 96.7738L0.461528 54.0819C-4.54219 51.4838 -8.55158 47.6027 -11.278 42.8235L-11.2459 42.7914Z" fill="#8AC53E"/>
</svg>
