<svg width="62" height="48" viewBox="0 0 62 48" fill="none" xmlns="http://www.w3.org/2000/svg">
<path d="M26.5308 23.9946H35.4692C36.0329 23.9949 36.5899 23.8723 37.1014 23.6352C37.6129 23.3981 38.0664 23.0523 38.4305 22.6218C38.7945 22.1914 39.0602 21.6867 39.2091 21.143C39.358 20.5993 39.3865 20.0296 39.2925 19.4737L38.5175 14.8496C38.2151 13.0728 37.2929 11.4607 35.9147 10.2993C34.5365 9.13784 32.7914 8.50229 30.9891 8.50538C29.1868 8.50848 27.4438 9.15003 26.0696 10.3162C24.6954 11.4823 23.7788 13.0976 23.4825 14.8754L22.7075 19.4996C22.32 21.8504 24.1283 23.9946 26.5308 23.9946ZM4.28833 21.6954C3.9525 22.3671 3.82333 23.1679 4.03 23.9687C4.44334 25.7512 5.99333 26.6296 7.9825 26.5521H13.02C15.1642 26.5521 16.9208 25.0537 16.9208 23.2196C16.9208 22.8579 16.8433 22.5221 16.74 22.1862C16.7142 22.1087 16.7142 22.0571 16.7658 21.9796C16.9983 21.5662 17.1275 21.1012 17.1275 20.6104C17.1275 19.8096 16.7658 19.0604 16.1975 18.4921C16.12 18.4146 16.12 18.3371 16.1458 18.2337C16.3267 17.7171 16.3267 17.1229 16.1717 16.5546C15.98 16.0201 15.6353 15.5539 15.1805 15.214C14.7257 14.8741 14.181 14.6755 13.6142 14.6429C13.546 14.6419 13.481 14.6141 13.4333 14.5654C12.9942 14.0229 12.1933 13.6612 11.2892 13.6612C10.5142 13.6612 9.81667 13.9196 9.35167 14.3329C9.27417 14.4104 9.19667 14.4104 9.11917 14.3846C8.65703 14.1973 8.15756 14.1205 7.6605 14.1602C7.16344 14.2 6.68254 14.3553 6.25606 14.6137C5.82959 14.8721 5.46933 15.2264 5.20396 15.6486C4.93859 16.0708 4.77544 16.5491 4.7275 17.0454C4.7275 17.0971 4.70167 17.1487 4.65 17.2004C3.90084 17.8721 3.46167 18.8796 3.59084 19.9129C3.66833 20.4812 3.90084 21.0237 4.23667 21.4629C4.31417 21.5146 4.31417 21.6179 4.28833 21.6954ZM41.9533 28.2571C38.9308 26.9137 35.2108 25.9321 31 25.9321C26.7892 25.9321 23.0692 26.9396 20.0467 28.2571C18.6858 28.8713 17.5321 29.8667 16.7251 31.1229C15.9182 32.3792 15.4927 33.8424 15.5 35.3354V36.9112C15.5 38.3321 16.6625 39.4946 18.0833 39.4946H43.9167C45.3375 39.4946 46.5 38.3321 46.5 36.9112V35.3354C46.5 32.2871 44.7433 29.4971 41.9533 28.2571ZM3.15167 30.6596C2.21576 31.0596 1.41805 31.7259 0.857714 32.5756C0.297374 33.4253 -0.000887856 34.4209 1.98528e-06 35.4387V36.9112C1.98528e-06 38.3321 1.1625 39.4946 2.58334 39.4946H11.625V35.3354C11.625 33.1912 12.2192 31.1762 13.2525 29.4196C12.2967 29.2646 11.3408 29.1612 10.3333 29.1612C7.77584 29.1612 5.3475 29.7037 3.15167 30.6596ZM58.8483 30.6596C56.5831 29.6712 54.1382 29.1611 51.6667 29.1612C50.6592 29.1612 49.7033 29.2646 48.7475 29.4196C49.7808 31.1762 50.375 33.1912 50.375 35.3354V39.4946H59.4167C60.8375 39.4946 62 38.3321 62 36.9112V35.4387C62 33.3462 60.76 31.4862 58.8483 30.6596ZM56.8333 21.4112V20.1196C56.8333 17.2779 54.5083 14.9529 51.6667 14.9529H46.5C45.415 14.9529 44.8208 16.1929 45.4925 17.0454L47.3008 18.6729C46.81 19.4737 46.5 20.4037 46.5 21.4112C46.5 24.2529 48.825 26.5779 51.6667 26.5779C54.5083 26.5779 56.8333 24.2529 56.8333 21.4112Z" fill="#FFD700"/>
</svg>
