<svg width="95" height="88" viewBox="0 0 95 88" fill="none" xmlns="http://www.w3.org/2000/svg">
<path d="M73.4973 35.3488C72.8831 38.7229 68.6667 40.0557 66.5355 37.3688C63.8218 33.9473 61.1131 30.1532 58.4501 25.9645C57.6032 24.6324 56.0674 23.8857 54.5087 24.1345C52.6215 24.4357 50.7511 24.7946 48.8976 25.2026C47.3387 25.5457 46.1602 26.8178 45.9215 28.3961C45.1081 33.7737 44.5691 39.2133 44.3102 44.6924C44.1248 48.6141 39.0703 50.247 36.9781 46.9248C34.6764 43.2698 32.4025 39.3727 30.1758 35.2187C29.0962 33.2045 26.5648 32.4429 24.6364 33.669C21.3398 35.7649 18.149 38.0863 15.0783 40.6143C13.6212 41.8138 13.2699 43.8922 14.2147 45.5259C23.751 62.0147 33.9605 74.8832 43.8516 84.836C45.5288 86.5237 48.2924 86.2977 49.8167 84.4708C52.4055 81.368 55.1528 78.4427 58.0418 75.706C58.9884 74.8093 59.4652 73.5214 59.3194 72.2257C58.9316 68.7808 58.6671 65.3416 58.5276 61.9139C58.3814 58.3187 62.7941 56.6117 65.4282 59.0629C66.6239 60.1756 67.81 61.2297 68.9837 62.2281C70.4023 63.4348 72.4661 63.4228 73.97 62.3243C76.7243 60.3126 79.5994 58.4823 82.5837 56.8451C83.7612 56.1992 84.5664 55.0326 84.7417 53.7011C85.775 45.8517 87.6977 38.3679 90.4719 31.3723C91.3744 29.0965 90.1845 26.4815 87.8163 25.8609C85.1846 25.1711 82.5615 24.5439 79.9446 23.9741C77.9181 23.5328 75.9044 24.7539 75.3856 26.762C74.6525 29.5993 74.0226 32.463 73.4973 35.3488Z" fill="#EB5D0B"/>
<path d="M47.8178 15.6359C53.5584 15.6359 57.3854 12.447 57.3854 7.81796C57.3854 3.1889 53.6612 0 47.8178 0C41.9743 0 38.209 3.49751 38.209 7.81796C38.209 12.3647 42.1183 15.6359 47.8178 15.6359Z" fill="#EB5D0B"/>
<path d="M87.4669 6.96408C87.4669 6.96936 87.4619 6.97325 87.4567 6.97209C82.2766 5.80437 78.2485 7.86131 77.4466 11.336C76.603 15.0186 79.5041 18.4339 84.6069 19.586C89.7508 20.7587 93.7424 18.9482 94.586 15.2038C95.4085 11.5441 92.6966 8.13092 87.477 6.95608C87.4719 6.95493 87.4669 6.95881 87.4669 6.96408Z" fill="#EB5D0B"/>
<path d="M21.1004 17.0555C21.0941 17.0555 21.0881 17.052 21.0848 17.0466C18.5102 12.7545 12.7323 11.9557 6.62553 15.6153C0.576317 19.2363 -1.44009 24.9557 1.02898 29.0499C3.6215 33.3909 9.56784 34.0287 15.5348 30.4694C21.5388 26.8715 23.7414 21.4655 21.1161 17.0644C21.1128 17.0589 21.1068 17.0555 21.1004 17.0555Z" fill="#EB5D0B"/>
</svg>
