<svg width="42" height="45" viewBox="0 0 42 45" fill="none" xmlns="http://www.w3.org/2000/svg">
<path id="Vector" d="M0.221026 10.7039L4.89481 21.4952C5.08688 22.0091 5.08688 22.5229 4.89481 23.0368L0.349075 33.8923C-0.227144 35.2412 0.86127 36.7828 2.33383 36.5901L13.9863 35.4981C14.4985 35.4981 15.0747 35.6266 15.4588 35.9477L24.3582 43.5915C25.5107 44.555 27.2393 43.9769 27.5594 42.4996L30.1204 31.0018C30.2485 30.4879 30.5686 30.0383 31.0168 29.7171L41.0046 23.5507C42.2851 22.7799 42.2851 20.9171 41.0046 20.1463L30.8887 14.1726C30.4405 13.9156 30.1204 13.466 29.9924 12.9521L27.2393 1.51855C26.9192 0.0411759 25.1265 -0.472693 24.0381 0.490811L15.2668 8.26307C14.8826 8.64848 14.3704 8.77694 13.7942 8.77694L2.14176 7.87767C0.669197 7.74921 -0.419217 9.29081 0.157002 10.6397L0.221026 10.7039Z" fill="#FFD700"/>
</svg>
